<svg width="45" height="44" viewBox="0 0 45 44" fill="none" xmlns="http://www.w3.org/2000/svg">
<path d="M22.5749 18.2314C23.4079 18.2314 24.2327 18.0673 25.0023 17.7486C25.7719 17.4298 26.4712 16.9626 27.0602 16.3735C27.6493 15.7845 28.1165 15.0852 28.4353 14.3156C28.7541 13.546 28.9181 12.7212 28.9181 11.8882C28.9181 11.0552 28.7541 10.2303 28.4353 9.46071C28.1165 8.69112 27.6493 7.99184 27.0602 7.40282C26.4712 6.81379 25.7719 6.34655 25.0023 6.02777C24.2327 5.70899 23.4079 5.54492 22.5749 5.54492C20.8926 5.54492 19.2791 6.21323 18.0895 7.40282C16.8999 8.59241 16.2316 10.2058 16.2316 11.8882C16.2316 13.5705 16.8999 15.1839 18.0895 16.3735C19.2791 17.5631 20.8926 18.2314 22.5749 18.2314ZM6.26367 37.0799V38.1673H38.8861V37.0799C38.8861 33.0203 38.8861 30.9904 38.0959 29.439C37.4009 28.075 36.2919 26.9661 34.9279 26.271C33.3765 25.4808 31.3467 25.4808 27.287 25.4808H17.8628C13.8031 25.4808 11.7732 25.4808 10.2219 26.271C8.85785 26.9661 7.74888 28.075 7.05386 29.439C6.26367 30.9904 6.26367 33.0203 6.26367 37.0799Z" fill="black" stroke="black" stroke-width="2.71854" stroke-linecap="round" stroke-linejoin="round"/>
</svg>
